<?xml version="1.0" encoding="utf-8"?>
<!-- Generator: Adobe Illustrator 22.0.0, SVG Export Plug-In . SVG Version: 6.00 Build 0)  -->
<svg version="1.1" xmlns="http://www.w3.org/2000/svg" xmlns:xlink="http://www.w3.org/1999/xlink" x="0px" y="0px"
	 viewBox="0 0 500 500" style="enable-background:new 0 0 500 500;" xml:space="preserve">
<style type="text/css">
	.st0{fill:#EBEBEB;}
	.st1{fill:#F0F0F0;}
	.st2{fill:#E0E0E0;}
	.st3{fill:#FAFAFA;}
	.st4{fill:#F5F5F5;}
	.st5{fill:#E6E6E6;}
	.st6{fill:#FFFFFF;}
	.st7{display:none;}
	.st8{display:inline;}
	.st9{fill:#407BFF;}
	.st10{opacity:0.9;fill:#FFFFFF;}
	.st11{fill:#263238;}
	.st12{fill:#7F3E3B;}
	.st13{fill:#630F0F;}
	.st14{opacity:0.2;}
	.st15{opacity:0.5;fill:#FFFFFF;}
	.st16{opacity:0.5;}
	.st17{opacity:0.3;}
	.st18{opacity:0.2;fill:#407BFF;}
</style>
<g id="Background_Complete">
	<g>
		<rect y="382.4" class="st0" width="500" height="0.3"/>
		<rect x="332.1" y="389.2" class="st0" width="97.6" height="0.3"/>
		<rect x="289" y="395" class="st0" width="46.7" height="0.3"/>
		<rect x="430.7" y="398.5" class="st0" width="19.2" height="0.3"/>
		<rect x="126.5" y="395.1" class="st0" width="92.5" height="0.3"/>
		<rect x="97.7" y="395.1" class="st0" width="19.9" height="0.3"/>
		<rect x="57.8" y="390.9" class="st0" width="32.9" height="0.3"/>
		<path class="st0" d="M237,337.8H43.9c-3.1,0-5.7-2.6-5.7-5.7V60.7c0-3.1,2.6-5.7,5.7-5.7H237c3.1,0,5.7,2.6,5.7,5.7v271.4
			C242.7,335.2,240.2,337.8,237,337.8z M43.9,55.2c-3,0-5.5,2.4-5.5,5.5v271.4c0,3,2.4,5.5,5.5,5.5H237c3,0,5.5-2.4,5.5-5.5V60.7
			c0-3-2.4-5.5-5.5-5.5H43.9z"/>
		<path class="st0" d="M453.3,337.8H260.2c-3.1,0-5.7-2.6-5.7-5.7V60.7c0-3.1,2.6-5.7,5.7-5.7h193.1c3.1,0,5.7,2.6,5.7,5.7v271.4
			C459,335.2,456.5,337.8,453.3,337.8z M260.2,55.2c-3,0-5.5,2.4-5.5,5.5v271.4c0,3,2.4,5.5,5.5,5.5h193.1c3,0,5.5-2.4,5.5-5.5V60.7
			c0-3-2.4-5.5-5.5-5.5H260.2z"/>
	</g>
	<g>
		<g>
			<polygon class="st1" points="391.1,373.2 89,373.2 71,168.3 373.1,168.3 			"/>
			<polygon class="st2" points="83.7,379.7 89,373.2 71,168.3 65.7,174.9 			"/>
			<path class="st3" d="M93,365.4L76.4,176.7c-0.2-2,1.4-3.7,3.4-3.7h285.9c1.8,0,3.2,1.3,3.4,3.1l16.6,188.7c0.2,2-1.4,3.7-3.4,3.7
				H96.4C94.7,368.5,93.2,367.2,93,365.4z"/>
			<polygon class="st2" points="131.5,373.2 86,373.2 82.8,382.4 128.3,382.4 			"/>
			<polygon class="st4" points="131.5,373.2 430.7,373.2 427.5,382.4 128.3,382.4 			"/>
			<polygon class="st2" points="254.7,373.2 312.1,373.2 311.4,379.2 254.1,379.2 			"/>
		</g>
		<g>
			<path class="st2" d="M341.6,154.9h72.5c6,39.8-21.8,72.5-61.5,72.5c-12.7,0-25.7-3.3-37.7-9.7L341.6,154.9z"/>
			<path class="st0" d="M341.6,154.9l38.2-55.5c9.1,6.8,16.9,15.3,22.9,24.9c5.9,9.6,9.8,20,11.4,30.6H341.6z"/>
			<path class="st5" d="M341.6,154.9l-10.9-72.5c8.5,0,17.1,1.5,25.4,4.4c8.4,2.9,16.4,7.2,23.7,12.6L341.6,154.9z"/>
			<path class="st1" d="M341.6,154.9l-26.8,62.8c-24.3-12.9-41.8-36.9-45.7-62.8c-6-39.8,21.8-72.5,61.5-72.5L341.6,154.9z"/>
		</g>
		<g>
			<path class="st0" d="M252.2,284.2h64.3c0.8,5.6,1,11.2,0.3,16.6c-0.6,5.4-2,10.6-4.1,15.5L252.2,284.2z"/>
			<path class="st2" d="M252.2,284.2l1.6-63.3c15.3,2.6,29.9,10.4,41.4,22c11.5,11.6,19,26.2,21.3,41.3H252.2z"/>
			<path class="st1" d="M252.2,284.2l-57.1,22c-3.6-7-6.1-14.5-7.2-22c-5.3-35.3,19.3-64.3,54.6-64.3c3.7,0,7.5,0.3,11.3,1
				L252.2,284.2z"/>
			<path class="st6" d="M252.2,284.2l60.5,32.1c-8.5,19.9-27.9,32.1-50.8,32.1c-27,0-53.7-17-66.8-42.3L252.2,284.2z"/>
		</g>
	</g>
</g>
<g id="Background_Simple" class="st7">
	<g class="st8">
		<path class="st9" d="M268.3,162.2c-44.6-34.3-119.5-113.3-165.3-42.1c-45.4,70.7,41.7,158.5,96.5,182.4
			c55.5,24.2,204.7,24,191.8-65.5C382.4,175.3,317.5,200.1,268.3,162.2z"/>
		<path class="st10" d="M268.3,162.2c-44.6-34.3-119.5-113.3-165.3-42.1c-45.4,70.7,41.7,158.5,96.5,182.4
			c55.5,24.2,204.7,24,191.8-65.5C382.4,175.3,317.5,200.1,268.3,162.2z"/>
	</g>
</g>
<g id="Shadow_1_">
	<ellipse id="_x3C_Path_x3E__297_" class="st4" cx="250" cy="416.2" rx="193.9" ry="11.3"/>
</g>
<g id="Setup_analytics">
	<g>
		<g>
			<g>
				<path class="st6" d="M240.6,239.4h-90.1c-5.7,0-10.8-4.7-11.2-10.4l-4.5-55.4c-0.5-5.7,3.8-10.4,9.5-10.4h90.1
					c5.7,0,10.8,4.7,11.2,10.4l4.5,55.4C250.6,234.7,246.3,239.4,240.6,239.4z"/>
				<path class="st9" d="M240.6,239.8h-90.1c-6,0-11.2-4.8-11.7-10.8l-4.5-55.4c-0.2-2.9,0.7-5.6,2.6-7.7c1.9-2.1,4.5-3.2,7.4-3.2
					h90.1c6,0,11.2,4.8,11.7,10.8l4.5,55.4c0.2,2.9-0.7,5.6-2.6,7.7C246.1,238.7,243.5,239.8,240.6,239.8z M144.3,163.6
					c-2.6,0-5,1-6.8,2.9c-1.7,1.9-2.6,4.4-2.4,7l4.5,55.4c0.4,5.5,5.3,10,10.8,10h90.1c2.6,0,5-1,6.8-2.9c1.7-1.9,2.6-4.4,2.4-7
					l-4.5-55.4c-0.4-5.5-5.3-10-10.8-10H144.3z"/>
			</g>
			<g>
				<path class="st2" d="M216.1,223.2c-3.5,3.8-8.1,6.6-13.2,8l-1.5-4.3c11.1-3,18.6-13.4,17.6-25.7c-0.6-7.3-4.1-14-9.3-18.8
					l2.9-3.1C225.6,191.4,227.2,211.2,216.1,223.2z"/>
				<path class="st11" d="M212.6,179.4l-2.9,3.1c-5.2-4.8-12.1-7.8-19.4-7.8c-7.3,0-13.7,3-18.1,7.8l-3.4-3.1
					c5.3-5.8,13-9.1,21.2-9.1C198.1,170.3,206.3,173.6,212.6,179.4z"/>
				<path class="st9" d="M202.9,231.2c-10.4,2.9-22.1-0.2-30.6-8c-13-12-14.6-31.8-3.6-43.8l3.4,3.1c-4.4,4.8-6.8,11.4-6.2,18.8
					c1.2,14.7,14.1,26.6,28.7,26.6c2.4,0,4.7-0.3,6.8-0.9L202.9,231.2z"/>
			</g>
		</g>
		<g>
			<rect x="110.7" y="73.7" class="st9" width="7.2" height="0.9"/>
			<rect x="87.2" y="73.7" class="st9" width="16.4" height="0.9"/>
			<g>
				<path class="st6" d="M180.1,153.3H90.1c-5.7,0-10.8-4.7-11.2-10.4l-4.5-55.4c-0.5-5.7,3.8-10.4,9.5-10.4h90.1
					c5.7,0,10.8,4.7,11.2,10.4l4.5,55.4C190.2,148.6,185.9,153.3,180.1,153.3z"/>
				<path class="st9" d="M180.1,153.7H90.1c-6,0-11.2-4.8-11.7-10.8l-4.5-55.4c-0.2-2.9,0.7-5.6,2.6-7.7c1.9-2.1,4.5-3.2,7.4-3.2
					h90.1c6,0,11.2,4.8,11.7,10.8l4.5,55.4c0.2,2.9-0.7,5.6-2.6,7.7C185.7,152.6,183,153.7,180.1,153.7z M83.9,77.6
					c-2.6,0-5,1-6.8,2.9c-1.7,1.9-2.6,4.4-2.4,7l4.5,55.4c0.4,5.5,5.3,10,10.8,10h90.1c2.6,0,5-1,6.8-2.9c1.7-1.9,2.6-4.4,2.4-7
					l-4.5-55.4c-0.4-5.5-5.3-10-10.8-10H83.9z"/>
			</g>
			<g>
				<polygon class="st2" points="82.5,93 130.2,93 129.8,88.3 82.1,88.3 				"/>
				<polygon class="st9" points="177.9,93 130.2,93 129.8,88.3 177.5,88.3 				"/>
				<polygon class="st2" points="83.5,105.3 97.1,105.3 96.7,100.6 83.1,100.6 				"/>
				<polygon class="st9" points="178.9,105.3 97.1,105.3 96.7,100.6 178.5,100.6 				"/>
				<polygon class="st2" points="84.5,117.6 127,117.6 126.6,112.8 84.1,112.8 				"/>
				<polygon class="st9" points="179.9,117.6 127,117.6 126.6,112.8 179.5,112.8 				"/>
				<polygon class="st2" points="85.5,129.8 158,129.8 157.6,125.1 85.1,125.1 				"/>
				<polygon class="st9" points="180.9,129.8 158,129.8 157.6,125.1 180.5,125.1 				"/>
				<polygon class="st2" points="86.5,142.1 120,142.1 119.6,137.4 86.1,137.4 				"/>
				<polygon class="st9" points="181.9,142.1 120,142.1 119.6,137.4 181.5,137.4 				"/>
			</g>
		</g>
		<g>
			<g>
				<path class="st6" d="M303.3,153.3h-90.1c-5.7,0-10.8-4.7-11.2-10.4l-4.5-55.4c-0.5-5.7,3.8-10.4,9.5-10.4h90.1
					c5.7,0,10.8,4.7,11.2,10.4l4.5,55.4C313.3,148.6,309,153.3,303.3,153.3z"/>
				<path class="st9" d="M303.3,153.7h-90.1c-6,0-11.2-4.8-11.7-10.8L197,87.5c-0.2-2.9,0.7-5.6,2.6-7.7c1.9-2.1,4.5-3.2,7.4-3.2
					h90.1c6,0,11.2,4.8,11.7,10.8l4.5,55.4c0.2,2.9-0.7,5.6-2.6,7.7C308.8,152.6,306.2,153.7,303.3,153.7z M207,77.6
					c-2.6,0-5,1-6.8,2.9c-1.7,1.9-2.6,4.4-2.4,7l4.5,55.4c0.4,5.5,5.3,10,10.8,10h90.1c2.6,0,5-1,6.8-2.9c1.7-1.9,2.6-4.4,2.4-7
					l-4.5-55.4c-0.4-5.5-5.3-10-10.8-10H207z"/>
			</g>
			<g>
				<polygon class="st2" points="258.1,142.1 256.5,142.1 252.2,88.3 253.7,88.3 				"/>
				<polygon class="st9" points="260.5,119.8 250.5,119.8 248.8,98.7 258.8,98.7 				"/>
				<polygon class="st2" points="238.4,142.1 236.8,142.1 232.4,88.3 234,88.3 				"/>
				<polygon class="st9" points="241.2,124.4 231.1,124.4 229.6,106 239.7,106 				"/>
				<polygon class="st2" points="218.6,142.1 217.1,142.1 212.7,88.3 214.3,88.3 				"/>
				<polygon class="st11" points="220.2,109.3 210.2,109.3 209.1,96.6 219.2,96.6 				"/>
				<polygon class="st2" points="277.9,142.1 276.3,142.1 271.9,88.3 273.5,88.3 				"/>
				<polygon class="st11" points="281.2,131.7 271.2,131.7 268.5,98.7 278.6,98.7 				"/>
				<polygon class="st2" points="297.6,142.1 296,142.1 291.6,88.3 293.2,88.3 				"/>
				<polygon class="st9" points="301.3,135.6 291.3,135.6 289.1,109.2 299.2,109.2 				"/>
			</g>
		</g>
		<g>
			<g>
				<path class="st6" d="M206.9,324.8h-90.1c-5.7,0-10.8-4.7-11.2-10.4l-4.5-55.4c-0.5-5.7,3.8-10.4,9.5-10.4h90.1
					c5.7,0,10.8,4.7,11.2,10.4l4.5,55.4C216.9,320.1,212.6,324.8,206.9,324.8z"/>
				<path class="st9" d="M206.9,325.2h-90.1c-6,0-11.2-4.8-11.7-10.8l-4.5-55.4c-0.2-2.9,0.7-5.6,2.6-7.7c1.9-2.1,4.5-3.2,7.4-3.2
					h90.1c6,0,11.2,4.8,11.7,10.8l4.5,55.4c0.2,2.9-0.7,5.6-2.6,7.7C212.4,324.1,209.8,325.2,206.9,325.2z M110.6,249
					c-2.6,0-5,1-6.8,2.9c-1.7,1.9-2.6,4.4-2.4,7l4.5,55.4c0.4,5.5,5.3,10,10.8,10h90.1c2.6,0,5-1,6.8-2.9c1.7-1.9,2.6-4.4,2.4-7
					l-4.5-55.4c-0.4-5.5-5.3-10-10.8-10H110.6z"/>
			</g>
			<g>
				<polygon class="st9" points="122.8,285.4 142.2,307.8 164.5,273.5 178.2,291.2 181.6,286 204.1,313 117.7,313 				"/>
				<polygon class="st2" points="187.6,286.8 178.6,306.1 149.8,260.4 136.3,289.4 131.9,282.5 117.7,313 204.1,312.9 				"/>
			</g>
		</g>
	</g>
</g>
<g id="Character_1_">
	<g>
		<path class="st9" d="M372.9,159.1c2.4,4.5,4.5,9,6.4,13.6c1.9,4.7,3.7,9.4,5,14.4c0.4,1.2,0.7,2.5,0.9,3.8
			c0.1,0.4,0.4,1.8,0.4,2.7c0,1,0,1.9-0.2,2.7c-0.5,3.3-1.7,5.9-3,8.3c-2.6,4.8-5.7,8.7-9.3,12.4c-1.1,1.1-2.9,1.1-4,0.1
			c-0.9-0.9-1.1-2.2-0.5-3.3l0.1-0.1c2.1-4.1,4.3-8.5,5.7-12.7c0.7-2.1,1.2-4.2,1.2-5.7c0-0.4,0-0.7-0.1-0.9c0-0.1,0-0.2-0.1-0.3
			l-0.2-0.6c-0.3-1.1-0.7-2.2-1.1-3.2c-1.5-4.3-3.4-8.7-5.3-13c-1.9-4.3-4-8.7-6.1-12.9l0-0.1c-1.4-2.8-0.2-6.2,2.6-7.6
			C368.1,155.3,371.4,156.4,372.9,159.1z"/>
		<path class="st12" d="M369.8,213.2l-4.8,1.5l5.6,6.6c0,0,2.2-1.9,2.9-4.7c0.3-0.9-0.1-1.9-0.9-2.5l-0.8-0.6
			C371.2,213.1,370.5,213,369.8,213.2z"/>
		<polygon class="st12" points="358.4,218.8 364.4,223.5 370.6,221.3 365,214.7 		"/>
		<path class="st11" d="M337.9,125.6c-0.1,0.6-0.5,1-0.9,0.9c-0.4-0.1-0.6-0.6-0.5-1.2c0.1-0.6,0.5-1,0.9-0.9
			C337.8,124.5,338,125,337.9,125.6z"/>
		<path class="st13" d="M337.4,126.6c0,0-2,3.1-3.9,4.5c0.8,1.2,2.7,1.1,2.7,1.1L337.4,126.6z"/>
		<path class="st11" d="M340.7,122.8c0.1,0,0.2,0,0.2-0.1c0.1-0.1,0.2-0.4,0-0.5c-1.3-1.4-2.9-1.2-3-1.2c-0.2,0-0.3,0.2-0.3,0.4
			c0,0.2,0.2,0.3,0.4,0.3l0,0c0.1,0,1.3-0.2,2.4,1C340.5,122.7,340.6,122.8,340.7,122.8z"/>
		<path class="st12" d="M354.3,136.4c-1.1,5.5-1.7,13.1,2.1,16.7c0,0-1.5,5.6-11.7,5.6c-11.2,0-5.4-4.9-5.4-4.9
			c4.6-1.4,4.6-6.7,3.5-11L354.3,136.4z"/>
		<path class="st9" d="M337.4,152.9c0,0,1.6-3.9,3.3-4.5c1.7-0.7,12.3-2.4,14.7-0.9c2.4,1.5,4.1,6.5,4.1,6.5L337.4,152.9z"/>
		<path class="st9" d="M348.6,409c-1,0-1.9-0.1-2.2-0.6c-0.1-0.2-0.2-0.4,0-0.8c0.1-0.2,0.3-0.3,0.6-0.4c1.2-0.3,3.9,1.2,4,1.2
			c0.1,0,0.1,0.1,0.1,0.2c0,0.1-0.1,0.1-0.1,0.1C350.4,408.9,349.5,409,348.6,409z M347.4,407.5c-0.1,0-0.2,0-0.3,0
			c-0.2,0-0.3,0.1-0.3,0.2c-0.1,0.2-0.1,0.3,0,0.4c0.3,0.5,2.2,0.5,3.6,0.3C349.6,408.1,348.3,407.5,347.4,407.5z"/>
		<path class="st9" d="M350.8,408.8C350.8,408.8,350.8,408.8,350.8,408.8c-1-0.4-2.8-2-2.6-2.9c0-0.2,0.2-0.4,0.7-0.5
			c0.4,0,0.7,0.1,1,0.3c1,0.8,1.2,2.8,1.2,2.9c0,0.1,0,0.1-0.1,0.2C350.9,408.8,350.9,408.8,350.8,408.8z M349,405.7
			c0,0-0.1,0-0.1,0c-0.3,0-0.3,0.2-0.3,0.2c-0.1,0.5,1.1,1.8,2.1,2.3c-0.1-0.6-0.4-1.8-1-2.3C349.5,405.8,349.2,405.7,349,405.7z"/>
		<polygon class="st12" points="359.1,408.6 351.6,408.6 350.8,391.3 358.3,391.3 		"/>
		<path class="st11" d="M351.6,407.7h8.2c0.3,0,0.6,0.2,0.6,0.5l1.5,6.7c0.2,0.7-0.4,1.3-1.1,1.3c-2.9-0.1-7.2-0.2-10.9-0.2
			c-4.3,0-4.9,0.2-9.9,0.2c-3.1,0-3.9-3.1-2.6-3.4c5.9-1.3,7.4-1.4,12.5-4.5C350.4,408,351,407.7,351.6,407.7z"/>
		<path class="st11" d="M369.8,153.1c7,1.6,11.6,20.5,11.6,20.5l-11.7,8.8c0,0-6.4-4-8.7-12.9C358.6,160.2,362.6,151.5,369.8,153.1z
			"/>
		<path class="st14" d="M363.8,166.3c3.8,3.8,6.3,9.7,6.6,15.7l-0.6,0.5c0,0-6.4-4-8.7-12.9c-0.1-0.6-0.3-1.1-0.4-1.7L363.8,166.3z"
			/>
		<g>
			<g>
				
					<rect x="344.4" y="191" transform="matrix(0.9286 -0.3711 0.3711 0.9286 -52.5517 154.4456)" class="st9" width="61.2" height="45.5"/>
				
					<rect x="344.5" y="191.2" transform="matrix(0.9286 -0.3711 0.3711 0.9286 -52.6435 154.3021)" class="st15" width="60.3" height="45.5"/>
			</g>
			<g class="st16">
				
					<rect x="343.7" y="205.2" transform="matrix(0.9286 -0.3711 0.3711 0.9286 -52.1378 143.3971)" class="st9" width="5.7" height="4"/>
				
					<rect x="352.4" y="201.7" transform="matrix(0.9286 -0.3711 0.3711 0.9286 -50.2146 146.3956)" class="st9" width="5.7" height="4"/>
				
					<rect x="361.2" y="198.2" transform="matrix(0.9286 -0.3711 0.3711 0.9286 -48.2914 149.3941)" class="st9" width="5.7" height="4"/>
				
					<rect x="369.9" y="194.7" transform="matrix(0.9286 -0.3711 0.3711 0.9286 -46.3682 152.3926)" class="st9" width="5.7" height="4"/>
				
					<rect x="378.7" y="191.2" transform="matrix(0.9286 -0.3711 0.3711 0.9286 -44.445 155.3911)" class="st9" width="5.7" height="4"/>
				
					<rect x="387.5" y="187.7" transform="matrix(0.9286 -0.3711 0.3711 0.9286 -42.5223 158.3966)" class="st9" width="5.7" height="4"/>
				
					<rect x="346.2" y="211.4" transform="matrix(0.9286 -0.3711 0.3711 0.9286 -54.2628 144.7578)" class="st9" width="5.7" height="4"/>
				
					<rect x="354.9" y="207.9" transform="matrix(0.9286 -0.3711 0.3711 0.9286 -52.34 147.7589)" class="st9" width="5.7" height="4"/>
				
					<rect x="363.7" y="204.4" transform="matrix(0.9286 -0.3711 0.3711 0.9286 -50.4168 150.7573)" class="st9" width="5.7" height="4"/>
				
					<rect x="372.4" y="200.9" transform="matrix(0.9286 -0.3711 0.3711 0.9286 -48.4936 153.7558)" class="st9" width="5.7" height="4"/>
				
					<rect x="381.2" y="197.4" transform="matrix(0.9286 -0.3711 0.3711 0.9286 -46.5704 156.7543)" class="st9" width="5.7" height="4"/>
				
					<rect x="389.9" y="193.9" transform="matrix(0.9286 -0.3711 0.3711 0.9286 -44.6473 159.7528)" class="st9" width="5.7" height="4"/>
				
					<rect x="348.6" y="217.6" transform="matrix(0.9286 -0.3711 0.3711 0.9286 -56.3887 146.1236)" class="st9" width="5.7" height="4"/>
				
					<rect x="357.4" y="214.1" transform="matrix(0.9286 -0.3711 0.3711 0.9286 -54.465 149.1194)" class="st9" width="5.7" height="4"/>
				
					<rect x="366.2" y="210.6" transform="matrix(0.9286 -0.3711 0.3711 0.9286 -52.5423 152.1206)" class="st9" width="5.7" height="4"/>
				
					<rect x="374.9" y="207.1" transform="matrix(0.9286 -0.3711 0.3711 0.9286 -50.6191 155.119)" class="st9" width="5.7" height="4"/>
				
					<rect x="383.7" y="203.6" transform="matrix(0.9286 -0.3711 0.3711 0.9286 -48.6966 158.1246)" class="st9" width="5.7" height="4"/>
				
					<rect x="392.4" y="200.1" transform="matrix(0.9286 -0.3711 0.3711 0.9286 -46.7733 161.1232)" class="st9" width="5.7" height="4"/>
				
					<rect x="351.1" y="223.8" transform="matrix(0.9286 -0.3711 0.3711 0.9286 -58.5141 147.4868)" class="st9" width="5.7" height="4"/>
				
					<rect x="359.9" y="220.3" transform="matrix(0.9286 -0.3711 0.3711 0.9286 -56.5909 150.4853)" class="st9" width="5.7" height="4"/>
				
					<rect x="368.6" y="216.8" transform="matrix(0.9286 -0.3711 0.3711 0.9286 -54.6673 153.481)" class="st9" width="5.7" height="4"/>
				
					<rect x="377.4" y="213.3" transform="matrix(0.9286 -0.3711 0.3711 0.9286 -52.7445 156.4823)" class="st9" width="5.7" height="4"/>
				
					<rect x="386.1" y="209.8" transform="matrix(0.9286 -0.3711 0.3711 0.9286 -50.8213 159.4808)" class="st9" width="5.7" height="4"/>
				
					<rect x="394.9" y="206.3" transform="matrix(0.9286 -0.3711 0.3711 0.9286 -48.8981 162.4793)" class="st9" width="5.7" height="4"/>
				
					<rect x="353.6" y="230" transform="matrix(0.9286 -0.3711 0.3711 0.9286 -60.639 148.8473)" class="st9" width="5.7" height="4"/>
				
					<rect x="362.4" y="226.5" transform="matrix(0.9286 -0.3711 0.3711 0.9286 -58.7163 151.8485)" class="st9" width="5.7" height="4"/>
				
					<rect x="371.1" y="223" transform="matrix(0.9286 -0.3711 0.3711 0.9286 -56.7931 154.847)" class="st9" width="5.7" height="4"/>
				
					<rect x="379.9" y="219.5" transform="matrix(0.9286 -0.3711 0.3711 0.9286 -54.8706 157.8498)" class="st9" width="5.7" height="4"/>
				
					<rect x="388.6" y="216" transform="matrix(0.9286 -0.3711 0.3711 0.9286 -52.9477 160.8512)" class="st9" width="5.7" height="4"/>
				
					<rect x="397.4" y="212.5" transform="matrix(0.9286 -0.3711 0.3711 0.9286 -51.0236 163.8425)" class="st9" width="5.7" height="4"/>
				
					<rect x="356.1" y="236.2" transform="matrix(0.9286 -0.3711 0.3711 0.9286 -62.765 150.2133)" class="st9" width="5.7" height="4"/>
				
					<rect x="364.8" y="232.7" transform="matrix(0.9286 -0.3711 0.3711 0.9286 -60.8418 153.2118)" class="st9" width="5.7" height="4"/>
				
					<rect x="373.6" y="229.2" transform="matrix(0.9286 -0.3711 0.3711 0.9286 -58.9186 156.2103)" class="st9" width="5.7" height="4"/>
				
					<rect x="382.3" y="225.7" transform="matrix(0.9286 -0.3711 0.3711 0.9286 -56.9954 159.2087)" class="st9" width="5.7" height="4"/>
				
					<rect x="391.1" y="222.2" transform="matrix(0.9286 -0.3711 0.3711 0.9286 -55.0718 162.2043)" class="st9" width="5.7" height="4"/>
				
					<rect x="399.9" y="218.7" transform="matrix(0.9286 -0.3711 0.3711 0.9286 -53.149 165.2057)" class="st9" width="5.7" height="4"/>
			</g>
			<g>
				<path class="st6" d="M390.3,194.7c-0.3-0.8,0.1-1.7,0.9-2.1c0.8-0.3,1.7,0.1,2.1,0.9c0.3,0.8-0.1,1.7-0.9,2.1
					C391.6,195.9,390.6,195.5,390.3,194.7z"/>
				<path class="st6" d="M389,216.8c-0.3-0.8,0.1-1.7,0.9-2.1c0.8-0.3,1.7,0.1,2.1,0.9c0.3,0.8-0.1,1.7-0.9,2.1
					C390.2,218,389.3,217.6,389,216.8z"/>
				<path class="st6" d="M369,217.6c-0.3-0.8,0.1-1.7,0.9-2.1c0.8-0.3,1.7,0.1,2.1,0.9c0.3,0.8-0.1,1.7-0.9,2.1
					C370.3,218.8,369.3,218.4,369,217.6z"/>
				<path class="st6" d="M356.5,237c-0.3-0.8,0.1-1.7,0.9-2.1c0.8-0.3,1.7,0.1,2.1,0.9c0.3,0.8-0.1,1.7-0.9,2.1
					C357.7,238.2,356.8,237.8,356.5,237z"/>
				<path class="st6" d="M357.9,237c-0.1,0-0.2,0-0.3-0.1c-0.3-0.2-0.4-0.5-0.2-0.8l12.5-19.4c0.1-0.2,0.3-0.3,0.5-0.3l19.5-0.8
					l1.3-21.6c0-0.3,0.3-0.6,0.6-0.6c0.3,0,0.6,0.3,0.6,0.6l-1.3,22.1c0,0.3-0.3,0.5-0.6,0.6l-19.7,0.8l-12.4,19.1
					C358.3,236.9,358.1,237,357.9,237z"/>
			</g>
		</g>
		<path class="st11" d="M325.5,160.6c-1.5,8.1-2.5,24.7,2,57.6h40c-0.7-5.7-3.6-36.1,2.3-65.1c0,0-6.9-1.4-13.4-1.7
			c-5.1-0.2-12.5-0.4-17,0c-1.9,0.2-3.7,0.4-5.4,0.7C329.7,152.9,326.3,156.3,325.5,160.6z"/>
		<path class="st14" d="M331.8,173.1l-7.5,0.6c-0.3,9.7,0.4,23.9,3.2,44.5h0.4C332.3,203.4,338.3,182.2,331.8,173.1z"/>
		<g>
			<polygon class="st14" points="350.9,391.3 351.2,400.2 358.7,400.2 358.3,391.3 			"/>
		</g>
		<path class="st12" d="M357.8,128.4c-1.9,7.2-2.7,11.5-7.1,14.5c-6.7,4.5-15-0.7-15.2-8.3c-0.2-6.8,3-17.4,10.7-18.9
			C353.8,114.3,359.8,121.2,357.8,128.4z"/>
		<path class="st11" d="M341,128.4l-3.9,1l3.6-9.4c-0.4-0.7-1.4-4-0.3-7.2c0.3-0.9,1.1-1.4,2-1.5c8.1-0.2,16.5,4.4,20.7,7.8
			c0.8,0.7,1,1.8,0.5,2.7c-0.9,1.5-2.1,2.7-3.7,4.2c-0.1,2.6-4.4,14.5-6.7,15.8c-2.4,1.3-6.9,0.8-8.1-1.4
			C343.9,138.4,339.8,135.5,341,128.4z"/>
		<path class="st12" d="M344.6,128.6c-0.4,1.9-1.6,3.5-2.9,4.5c-1.9,1.5-3.4,0.1-3.3-2.1c0.1-2,1.1-5.2,3.3-5.8
			C343.8,124.6,345.1,126.4,344.6,128.6z"/>
		<path class="st9" d="M413.1,406.4c0-1,0.1-1.9,0.5-2.2c0.2-0.1,0.4-0.2,0.8,0c0.2,0.1,0.3,0.3,0.4,0.6c0.3,1.2-1.1,3.9-1.2,4
			c0,0.1-0.1,0.1-0.2,0.1c-0.1,0-0.1-0.1-0.1-0.1C413.2,408.2,413.1,407.3,413.1,406.4z M414.5,405.2c0-0.1,0-0.2,0-0.3
			c0-0.2-0.1-0.3-0.3-0.3c-0.2-0.1-0.3-0.1-0.4,0c-0.5,0.4-0.5,2.2-0.3,3.6C413.9,407.4,414.5,406.1,414.5,405.2z"/>
		<path class="st9" d="M413.3,408.7C413.3,408.6,413.3,408.6,413.3,408.7c0.4-1,2-2.8,2.9-2.6c0.2,0,0.4,0.2,0.5,0.7
			c0,0.4-0.1,0.7-0.3,1c-0.8,1-2.8,1.2-2.9,1.2c-0.1,0-0.1,0-0.2-0.1C413.3,408.7,413.3,408.7,413.3,408.7z M416.3,406.8
			c0,0,0-0.1,0-0.1c0-0.3-0.2-0.3-0.2-0.3c-0.5-0.1-1.8,1.1-2.3,2.1c0.6-0.1,1.8-0.4,2.3-1C416.3,407.2,416.3,407,416.3,406.8z"/>
		<polygon class="st12" points="413.4,408.7 406.1,409.2 402,391.7 409.3,391.2 		"/>
		<path class="st11" d="M413.4,407l-8.1-0.7c-0.3,0-0.6,0.2-0.7,0.5l-2.1,6.5c-0.2,0.7,0.3,1.4,1,1.4c2.9,0.2,7.2,0.4,10.9,0.7
			c4.3,0.4,1.5,0.4,6.6,0.8c3.1,0.3,4.2-2.7,2.9-3.1c-5.7-1.8-6.8-3-8.7-5.3C414.7,407.3,414,407.1,413.4,407z"/>
		<g>
			<polygon class="st14" points="402,391.8 404.1,400.8 411.4,400.2 409.3,391.2 			"/>
		</g>
		<path class="st9" d="M341.6,218.2c0,0,17.2,57.5,23.7,78.8c7.2,23.4,34.4,100.9,34.4,100.9l13.2-2.9c0,0-18.6-66.6-26.4-99.2
			c-5.9-25-19.1-77.6-19.1-77.6H341.6z"/>
		<path class="st11" d="M397.4,393.9c-0.1,0,1.3,5.2,1.3,5.2l15.9-1.7l-0.1-4.7L397.4,393.9z"/>
		<path class="st17" d="M351.2,244.8c9.5,1.3,13.3,34.5,14.7,53.9c-0.2-0.6-0.4-1.2-0.5-1.8c-3.6-11.7-10.3-34.1-15.7-52.1
			C350.1,244.8,350.6,244.8,351.2,244.8z"/>
		<path class="st9" d="M327.4,218.2c0,0,5.8,56,8.3,78.8c2.6,23.7,12.3,101.5,12.3,101.5h12.7c0,0-1.5-76.4-2-99.7
			c-0.6-25.4-4.9-80.6-4.9-80.6H327.4z"/>
		<path class="st11" d="M346,393.4c-0.1,0,0.7,5.3,0.7,5.3h15.4l0.4-4.7L346,393.4z"/>
		<g>
			<path class="st11" d="M273.3,270.9c6.6,10.5,20.5,13.6,30.9,7c10.5-6.6,13.6-20.5,7-30.9s-20.5-13.6-30.9-7
				C269.8,246.5,266.7,260.4,273.3,270.9z M308.2,248.8c5.6,8.8,2.9,20.5-5.9,26c-8.8,5.6-20.5,2.9-26.1-5.9
				c-5.6-8.8-2.9-20.5,5.9-26.1C291,237.4,302.7,240,308.2,248.8z"/>
			<path class="st18" d="M309.1,262.7c-2.1,9.3-11.4,15.2-20.7,13.1c-9.3-2.1-15.2-11.4-13.1-20.7c2.1-9.3,11.4-15.2,20.7-13.1
				C305.4,244.1,311.2,253.4,309.1,262.7z"/>
			<path class="st11" d="M311.8,244.2l2.1,3.3c0.3,0.5,0.2,1.2-0.3,1.5l0,0c-0.5,0.3-1.2,0.2-1.5-0.3l-2.1-3.3
				c-0.3-0.5-0.2-1.2,0.3-1.5l0,0C310.9,243.6,311.5,243.7,311.8,244.2z"/>
			<path class="st11" d="M325.5,234.7c-2.4,1.7-4.8,3.4-7.2,5.1c-2.4,1.7-4.7,3.5-7,5.4c-0.5,0.4-0.7,1.2-0.4,1.8
				c0.3,0.7,1.2,1.1,2,0.7c2.7-1.3,5.3-2.6,7.9-4c2.6-1.4,5.2-2.8,7.7-4.3c2.2-1.3,4.3-2.5,6.5-3.9c0.6-0.4,0.8-1.2,0.4-1.8
				l-1.7-2.7c-0.4-0.6-1.2-0.8-1.8-0.4C329.6,231.9,327.5,233.3,325.5,234.7z"/>
		</g>
		<path class="st9" d="M336.6,163.4c-1.2,6-2.5,12-3.9,18l-4.1,17.9c-1.3,5.8-2.5,11.7-3.5,17.7l-3.1,18l0,0
			c-0.3,1.5-1.7,2.6-3.3,2.3c-1.3-0.2-2.3-1.4-2.3-2.7c-0.2-6.3-0.1-12.4,0.2-18.7c0.4-6.2,0.9-12.5,2-18.7c1-6.1,2.1-12.2,3.2-18.2
			c1.2-6,2.4-12.1,3.8-18c0.7-3.1,3.8-5,6.8-4.3C335.3,157.5,337.2,160.4,336.6,163.4z"/>
		<path class="st12" d="M321,233.3c-0.5-0.5-1.3-0.8-2-0.6l-1.6,0.4c-0.8,0.2-1.5,0.9-1.6,1.7l-0.5,3.6c-0.1,1,0.1,2.1,0.6,3
			l2.2,3.7c0.6,0.8,1.6,1.1,2.5,0.9c0,0,2.3-0.5,2.3-0.5c1.5-0.3,2.3-1.8,1.9-3.2l-0.6-1.9C324.3,240.5,324.3,236.8,321,233.3z"/>
		<path class="st11" d="M344.4,160c3.6,9.7-8.9,23.4-8.9,23.4l-15.9-5.3c0,0,1.2-13.2,6.7-20.6C333.1,148.3,341.6,152.6,344.4,160z"
			/>
	</g>
</g>
</svg>
